<?xml version="1.0" encoding="utf-8"?>
<!-- Generator: Adobe Illustrator 16.0.0, SVG Export Plug-In . SVG Version: 6.00 Build 0)  -->
<!DOCTYPE svg PUBLIC "-//W3C//DTD SVG 1.1//EN" "http://www.w3.org/Graphics/SVG/1.1/DTD/svg11.dtd">
<svg version="1.1" xmlns="http://www.w3.org/2000/svg" xmlns:xlink="http://www.w3.org/1999/xlink" x="0px" y="0px" width="275px"
	 height="480px" viewBox="0 0 275 480" enable-background="new 0 0 275 480" xml:space="preserve">
<g id="Layer_1" display="none">
	<g display="inline">
		<rect x="-174" y="1" fill="#282827" width="640" height="480"/>
		<rect x="-173.5" y="0.5" fill="none" stroke="#000000" stroke-miterlimit="10" width="640" height="480"/>
		<rect x="-174" y="1" fill="#282827" width="640" height="480"/>
		<rect x="-173.5" y="0.5" fill="none" stroke="#000000" stroke-miterlimit="10" width="640" height="480"/>
	</g>
</g>
<g id="Layer_5">
	<g>
		<rect x="13" y="200" fill="#415E72" width="248" height="248"/>
		<g>
			<rect x="20" y="207" fill="#FCD577" width="234" height="234"/>
			<g>
				<g id="XMLID_1_">
					<g>
						<path fill="#415E72" d="M217.45,319.463c2.03,0,3.697,1.653,3.697,3.697s-1.667,3.697-3.697,3.697h-3.698
							c-2.043,0-3.697-1.653-3.697-3.697s1.654-3.697,3.697-3.697H217.45z"/>
						<path fill="#E7ECED" d="M136.098,216.382c59.221,0,107.234,48.007,107.234,107.228s-48.014,107.229-107.234,107.229
							S28.876,382.831,28.876,323.61S76.877,216.382,136.098,216.382z M228.542,323.61c0-50.972-41.486-92.438-92.444-92.438
							c-50.965,0-92.431,41.466-92.431,92.438c0,50.966,41.466,92.438,92.431,92.438
							C187.056,416.049,228.542,374.576,228.542,323.61z"/>
						<path fill="#E7ECED" d="M136.098,312.067c-6.131,0-11.093,4.969-11.093,11.093s4.961,11.093,11.093,11.093
							c6.118,0,11.086-4.969,11.086-11.093S142.215,312.067,136.098,312.067z M136.098,231.172
							c50.958,0,92.444,41.466,92.444,92.438c0,50.966-41.486,92.438-92.444,92.438c-50.965,0-92.431-41.473-92.431-92.438
							C43.667,272.639,85.132,231.172,136.098,231.172z M221.147,323.16c0-2.044-1.667-3.697-3.697-3.697h-3.698
							c-2.043,0-3.697,1.653-3.697,3.697s1.654,3.697,3.697,3.697h3.698C219.48,326.857,221.147,325.204,221.147,323.16z
							 M196.232,268.255c1.438-1.445,1.438-3.784,0-5.229c-1.445-1.445-3.784-1.445-5.23,0l-2.608,2.615
							c-1.452,1.445-1.452,3.777,0,5.223c0.72,0.727,1.661,1.09,2.608,1.09c0.941,0,1.896-0.363,2.615-1.09L196.232,268.255z
							 M196.232,383.295c1.438-1.445,1.438-3.784,0-5.23l-2.615-2.614c-1.445-1.446-3.778-1.446-5.224,0
							c-1.452,1.445-1.452,3.784,0,5.229l2.608,2.615c0.72,0.72,1.668,1.083,2.615,1.083
							C194.565,384.378,195.5,384.015,196.232,383.295z M139.789,404.506v-3.698c0-2.043-1.647-3.697-3.691-3.697
							c-2.037,0-3.698,1.654-3.698,3.697v3.698c0,2.043,1.661,3.697,3.698,3.697C138.141,408.203,139.789,406.549,139.789,404.506z
							 M139.789,245.512v-3.697c0-2.043-1.647-3.697-3.691-3.697c-2.037,0-3.698,1.654-3.698,3.697v3.697
							c0,2.044,1.661,3.698,3.698,3.698C138.141,249.21,139.789,247.556,139.789,245.512z M83.814,270.863
							c1.446-1.445,1.446-3.777,0-5.223l-2.615-2.615c-1.446-1.445-3.785-1.445-5.23,0c-1.452,1.445-1.452,3.784,0,5.229
							l2.608,2.608c0.726,0.727,1.674,1.09,2.622,1.09C82.141,271.953,83.088,271.59,83.814,270.863z M83.814,380.68
							c1.446-1.445,1.446-3.784,0-5.229c-1.452-1.446-3.792-1.439-5.237,0l-2.608,2.614c-1.452,1.446-1.452,3.785,0,5.23
							c0.719,0.72,1.661,1.083,2.608,1.083s1.896-0.363,2.622-1.083L83.814,380.68z M62.154,323.16c0-2.044-1.661-3.697-3.697-3.697
							h-3.698c-2.05,0-3.697,1.653-3.697,3.697s1.647,3.697,3.697,3.697h3.698C60.493,326.857,62.154,325.204,62.154,323.16z"/>
						<path fill="#415E72" d="M196.232,263.025c1.438,1.445,1.438,3.784,0,5.229l-2.615,2.608c-0.719,0.727-1.674,1.09-2.615,1.09
							c-0.947,0-1.889-0.363-2.608-1.09c-1.452-1.445-1.452-3.777,0-5.223l2.608-2.615
							C192.448,261.58,194.787,261.58,196.232,263.025z"/>
						<path fill="#415E72" d="M196.232,378.064c1.438,1.446,1.438,3.785,0,5.23c-0.732,0.72-1.667,1.083-2.615,1.083
							c-0.947,0-1.896-0.363-2.615-1.083l-2.608-2.615c-1.452-1.445-1.452-3.784,0-5.229c1.445-1.446,3.778-1.446,5.224,0
							L196.232,378.064z"/>
						<path fill="#E7ECED" d="M136.098,312.067c6.118,0,11.086,4.969,11.086,11.093s-4.968,11.093-11.086,11.093
							c-6.131,0-11.093-4.969-11.093-11.093S129.966,312.067,136.098,312.067z"/>
						<path fill="#415E72" d="M139.789,400.808v3.698c0,2.043-1.647,3.697-3.691,3.697c-2.037,0-3.698-1.654-3.698-3.697v-3.698
							c0-2.043,1.661-3.697,3.698-3.697C138.141,397.11,139.789,398.765,139.789,400.808z"/>
						<path fill="#415E72" d="M139.789,241.814v3.697c0,2.044-1.647,3.698-3.691,3.698c-2.037,0-3.698-1.654-3.698-3.698v-3.697
							c0-2.043,1.661-3.697,3.698-3.697C138.141,238.117,139.789,239.771,139.789,241.814z"/>
						<path fill="#415E72" d="M83.814,265.641c1.446,1.445,1.446,3.777,0,5.223c-0.726,0.727-1.674,1.09-2.615,1.09
							c-0.948,0-1.896-0.363-2.622-1.09l-2.608-2.608c-1.452-1.445-1.452-3.784,0-5.229c1.445-1.445,3.785-1.445,5.23,0
							L83.814,265.641z"/>
						<path fill="#415E72" d="M83.814,375.45c1.446,1.445,1.446,3.784,0,5.229l-2.615,2.615c-0.726,0.72-1.674,1.083-2.622,1.083
							s-1.889-0.363-2.608-1.083c-1.452-1.445-1.452-3.784,0-5.23l2.608-2.614C80.023,374.011,82.362,374.004,83.814,375.45z"/>
						<path fill="#415E72" d="M58.457,319.463c2.037,0,3.697,1.653,3.697,3.697s-1.661,3.697-3.697,3.697h-3.698
							c-2.05,0-3.697-1.653-3.697-3.697s1.647-3.697,3.697-3.697H58.457z"/>
					</g>
					<g>
						
							<line fill="none" class="hour"  stroke="#415E72" stroke-width="2" stroke-linecap="round" stroke-linejoin="round" stroke-miterlimit="10" x1="125.005" y1="323.16" x2="95.425" y2="323.16"/>
						    <line fill="none" class="minute" stroke="#000000" stroke-miterlimit="10" x1="136.098" y1="312.067" x2="136.098" y2="271.395"/>
						
							<path fill="none" stroke="#415E72" stroke-width="2" stroke-linecap="round" stroke-linejoin="round" stroke-miterlimit="10" d="
							M136.098,312.067c6.118,0,11.086,4.969,11.086,11.093s-4.968,11.093-11.086,11.093c-6.131,0-11.093-4.969-11.093-11.093
							S129.966,312.067,136.098,312.067z"/>
					</g>
				</g>
			</g>
		</g>
	</g>
</g>
<g id="Layer_3">
	<g id="Layer_1_2_">
		
			<line fill="none" stroke="#FFFFFF" stroke-width="5.3201" stroke-miterlimit="10" x1="162.327" y1="164.757" x2="168.438" y2="175.606"/>
		<g>
			<path fill="#252533" d="M171.04,176.566c1.112-0.574,27.168-14.297,24.294-37.359c-2.981-23.914-39.017-32.857-62.782-29.889
				l1.918,15.382c9.521-1.186,21.148,0.146,30.354,3.478c4.257,1.54,14.249,5.886,15.13,12.948
				c1.508,12.122-15.865,21.583-16.042,21.676L171.04,176.566z"/>
		</g>
		<ellipse fill="#323244" cx="133.828" cy="119.032" rx="21.419" ry="9.529"/>
		<g>
			<path fill="#131516" d="M162.073,194.511"/>
			<path fill="#131516" d="M145.045,194.511"/>
		</g>
		<polygon fill="#252533" points="126.965,272.773 127.017,208.121 140.395,208.121 140.749,272.773 171.453,272.549 
			165.971,194.715 101.501,194.715 96.546,272.549 		"/>
		<g>
			<path fill="#252533" d="M95.678,188.456l-15.967,1.858c0,0-1.693-15.33-1.696-35.977c-0.005-24.904,37.138-47.31,43.8-44.416
				c11.08,4.813,6.042,11.54,6.042,15.543c0,7.34-33.542,7.601-33.542,30.264C94.315,188.852,95.678,188.456,95.678,188.456z"/>
		</g>
		<path fill="#252533" d="M134.358,107.779c-31.058,0-27.204,17.851-27.204,17.851v69.577h54.153v-69.505
			C161.308,125.701,165.415,107.779,134.358,107.779z"/>
		<path fill="#FFB37B" d="M90.733,199.473c0,0,0.702,2.287,1.019,5.362c0.313,3.042,4.552,3.439,3.916-1.812
			c-0.204-1.682-0.43-3.072-0.742-4.229c1.771,1.208,4.638,2.903,5.65,1.964c2.556-2.377-0.92-4.886-4.528-6.079
			c-2.686-0.887-5.987-0.576-7.928-0.394c-0.449,0.015-0.919,0.039-1.431,0.087c-7.363,0.661-6.519,11.299-3.975,12.711
			c3.962,2.201,2.566-7.243,2.566-7.243s-0.569,7.683,2.809,8.068C90.747,208.213,90.803,201.874,90.733,199.473z"/>
		
			<line fill="none" stroke="#FFFFFF" stroke-width="5.3201" stroke-miterlimit="10" x1="95.09" y1="191.498" x2="81.618" y2="193.138"/>
		<polygon fill="#FFFFFF" points="120.755,111.458 133.772,149.558 146.901,111.458 		"/>
		<path fill="#AFA2A0" d="M146.837,115.67l-0.137-0.069c-8.179-3.938-17.705-3.938-25.886,0.005l-0.131,0.064l3.59,10.409
			l9.488-7.021l9.49,7.021L146.837,115.67z"/>
		<polygon fill="#070404" points="136.446,141.761 133.761,149.561 131.098,141.761 133.818,111.46 133.818,111.46 		"/>
		<path fill="#070404" d="M133.75,122.298h0.046c1.324,0,2.489-0.871,2.866-2.141l1.488-5.045c0.568-1.916-0.869-3.834-2.863-3.834
			h-3.025c-1.995,0-3.43,1.918-2.866,3.834l1.487,5.045C131.259,121.427,132.427,122.298,133.75,122.298z"/>
		<path fill="#FFFFFF" d="M146.901,111.458l-0.143-0.066c-8.179-3.939-17.705-3.937-25.882,0.005l-0.131,0.061l3.588,10.413
			l9.49-6.247l9.49,6.247L146.901,111.458z"/>
		<polygon fill="#323244" points="133.761,149.561 146.901,109.073 156.329,113.212 150.63,120.821 146.901,122.278 
			148.468,127.303 		"/>
		<polygon fill="#323244" points="133.761,149.563 120.623,109.076 111.193,112.662 116.89,120.823 120.623,122.28 119.052,127.306 
					"/>
		<path fill="#FF9E5C" d="M111.193,126.701"/>
		<g>
			<path fill="#323244" d="M132.996,151.42c0,14.515,0,29.032,0,43.547c0,0.996,1.553,0.999,1.553,0c0-14.515,0-29.032,0-43.547
				C134.548,150.421,132.996,150.418,132.996,151.42L132.996,151.42z"/>
		</g>
		<path fill="#774320" d="M103.537,88.637c0,0-21.487-36.14,0.025-45.97c5.067-19.458,31.537-14.546,38.004-12.72
			c6.466,1.832,10.3-1.49,10.3-1.49c2.166,1.957,2.375,6.065,2.375,6.065l5.002-6.542c6.629,4.149,10.314,14.837,1.014,30.052
			L103.537,88.637z"/>
		<path fill="#FF9E5C" d="M140.669,109.091c0,3.411-2.764,6.176-6.176,6.176h-1.543c-3.41,0-6.176-2.765-6.176-6.176V98.616
			c0-3.412,2.766-6.175,6.176-6.175h1.543c3.412,0,6.176,2.763,6.176,6.175V109.091z"/>
		<path fill="#FFB37B" d="M138.134,41.25l-17.553,1.421c-11.396,0.922-19.85,11.334-18.887,23.251l0.417,5.133
			c0.002,0.057-0.039,0.1-0.092,0.097c-0.359-0.023-0.725-0.026-1.091,0.002l-0.208,0.018c-4.487,0.361-7.814,4.462-7.435,9.157
			l0.013,0.169c0.381,4.692,4.323,8.199,8.809,7.835l0.209-0.018c0.376-0.028,0.74-0.095,1.102-0.179
			c0.048-0.01,0.098,0.025,0.105,0.08c1.357,11.441,11.118,19.875,22.193,18.979l17.642-1.429
			c11.392-0.92,19.849-11.332,18.884-23.251l-1.729-21.353C159.548,49.244,149.528,40.329,138.134,41.25z"/>
		<g>
			<path fill="#774320" d="M109.423,77.367c-0.82-10.155-3.974-22.762,4.417-30.392c4.25-3.865,9.251-4.254,14.569-4.684
				c4.331-0.351,8.657-0.781,12.993-1.053c4.679-0.295,4.101-7.753-0.609-7.533c-4.748,0.228-9.479,0.771-14.215,1.152
				c-6.764,0.548-12.898,2.003-18.048,6.979c-5.731,5.538-8.142,13.401-7.491,21.451c0.397,4.887,0.794,9.774,1.188,14.664
				C102.62,82.807,109.818,82.223,109.423,77.367L109.423,77.367z"/>
		</g>
		
			<ellipse transform="matrix(-0.0804 -0.9968 0.9968 -0.0804 63.1845 207.3758)" fill="#131516" cx="127.252" cy="74.542" rx="2.726" ry="1.973"/>
		<path fill="#131516" d="M149.151,69.996c1.088-0.087,2.064,1.058,2.186,2.556c0.123,1.499-0.658,2.787-1.744,2.874
			c-1.084,0.09-2.063-1.055-2.184-2.553C147.288,71.371,148.069,70.085,149.151,69.996z"/>
		<g>
			<path fill="#774320" d="M153.313,62.701c-2.867-3.204-7.359-3.032-9.671,0.684c-0.521,0.84,0.807,1.611,1.326,0.773
				c1.804-2.902,5.064-2.827,7.263-0.371C152.89,64.525,153.972,63.437,153.313,62.701L153.313,62.701z"/>
		</g>
		<g>
			<path fill="#774320" d="M122.904,66.103c1.778-2.799,4.975-3.25,7.236-0.684c0.655,0.74,1.736-0.348,1.088-1.086
				c-2.922-3.314-7.363-2.604-9.648,0.999C121.048,66.164,122.376,66.935,122.904,66.103L122.904,66.103z"/>
		</g>
		<path fill="#774320" d="M158.405,35.116c0,0,1.256,11.41-21.503,13.25c-22.757,1.844-31.199,1.293-29.512,22.147
			c0,0-6.994-30.244,12.649-34.706C139.678,31.346,147.585,40.485,158.405,35.116z"/>
		<g>
			<path fill="#E56533" d="M129.915,92.109c5.051,4.173,11.96,3.819,16.438-1.019c0.609-0.661-0.377-1.652-0.992-0.988
				c-3.925,4.241-9.97,4.725-14.457,1.017C130.214,90.55,129.216,91.536,129.915,92.109L129.915,92.109z"/>
		</g>
		<rect x="99" y="272" fill="#441A11" width="25" height="10"/>
		<rect x="98" y="277" fill="#6B2A18" width="17" height="5"/>
		<rect x="143" y="272" fill="#441A11" width="25" height="10"/>
		<rect x="153" y="277" fill="#6B2A18" width="17" height="5"/>
		<path fill="#FFB37B" d="M160.868,173.562c0,0-2.363,0.374-5.266,1.44c-2.871,1.055-5.088-2.58-0.092-4.313
			c1.602-0.556,2.949-0.963,4.125-1.191c-1.862-1.06-4.645-2.892-4.246-4.213c1.014-3.34,4.795-1.319,7.451,1.398
			c1.976,2.023,3.146,5.125,3.836,6.949c0.184,0.41,0.368,0.843,0.55,1.324c2.641,6.905-7.288,10.819-9.674,9.154
			c-3.718-2.592,5.38-5.486,5.38-5.486s-6.652,3.886-8.482,1.02C153.009,177.388,158.68,174.553,160.868,173.562z"/>
	</g>
</g>
</svg>
