<?xml version="1.0" encoding="utf-8"?>
<!-- Generator: Adobe Illustrator 16.0.0, SVG Export Plug-In . SVG Version: 6.00 Build 0)  -->
<!DOCTYPE svg PUBLIC "-//W3C//DTD SVG 1.1//EN" "http://www.w3.org/Graphics/SVG/1.1/DTD/svg11.dtd">
<svg version="1.1" xmlns="http://www.w3.org/2000/svg" xmlns:xlink="http://www.w3.org/1999/xlink" x="0px" y="0px"
	 width="960.87px" height="256.917px" viewBox="-402.872 535.083 960.87 256.917"
	 enable-background="new -402.872 535.083 960.87 256.917" xml:space="preserve">
<g id="Layer_2">
</g>
<g id="Layer_1">
	<g>
		<g>
			<path fill="#FCD577" d="M37.397,719.203v-19.154c0-6.928,4.697-12.543,10.489-12.543h59.349c5.797,0,10.494,5.615,10.494,12.543
				v19.154"/>
			<path fill="#FCD577" d="M130.984,650.037V624c0-25.471-17.271-46.121-38.576-46.121h-29.69c-21.306,0-38.576,20.65-38.576,46.121
				v26.037v69.164h105.347"/>
		</g>
		<path fill="#EAC36E" d="M32.384,624c0-25.471,17.27-46.121,38.576-46.121h-8.243c-21.306,0-38.576,20.65-38.576,46.121v26.037
			v69.166h8.243v-69.166V624L32.384,624z"/>
		<g>
			<path fill="#FCD577" d="M37.397,719.203v-19.154v-27.598c0-10.35-5.532-19.156-13.255-22.414
				c-2.139-0.904-4.445-1.381-6.848-1.352c-10.749,0.139-19.556,10.684-19.657,23.535c-0.062,7.738,2.97,14.633,7.706,19.023
				c6.109,5.662,9.521,14.535,9.521,23.773v4.186"/>
			<path fill="#FCD577" d="M117.729,719.203v-19.154v-27.598c0-10.35,5.531-19.156,13.255-22.414
				c2.073-0.877,4.299-1.354,6.623-1.354c10.984,0,19.883,10.641,19.883,23.768c0,7.533-2.93,14.246-7.504,18.6
				c-6.049,5.758-9.727,14.35-9.727,23.594v4.559"/>
		</g>
		<g>
			<path fill="#EAC36E" d="M123.724,672.449c0-10.348,5.532-19.154,13.255-22.412c1.167-0.496,2.385-0.855,3.639-1.082
				c-0.981-0.178-1.987-0.271-3.011-0.271c-2.324,0-4.55,0.475-6.623,1.354c-7.724,3.258-13.255,12.064-13.255,22.412v27.598v19.154
				h5.994v-19.154V672.449z"/>
			<path fill="#EAC36E" d="M31.401,672.449c0-10.348-5.532-19.154-13.255-22.412c-1.167-0.496-2.384-0.855-3.64-1.082
				c0.982-0.178,1.987-0.271,3.011-0.271c2.324,0,4.551,0.475,6.624,1.354c7.724,3.258,13.255,12.064,13.255,22.412v27.598v19.154
				h-5.996v-19.154V672.449L31.401,672.449z"/>
			<path fill="#EAC36E" d="M77.563,678.77c-1.552,0-2.81-1.502-2.81-3.357v-56.547c0-1.857,1.257-3.359,2.81-3.359
				c1.552,0,2.809,1.504,2.809,3.359v56.547C80.372,677.268,79.114,678.77,77.563,678.77z"/>
		</g>
		<g>
			<ellipse fill="#415E72" cx="137.975" cy="673.287" rx="5.62" ry="6.719"/>
			<ellipse fill="#415E72" cx="17.148" cy="673.287" rx="5.62" ry="6.719"/>
		</g>
		<g>
			<path fill="#EAC36E" d="M91.843,678.771c-0.347,0-0.698-0.076-1.04-0.24c-1.443-0.688-2.144-2.643-1.57-4.365l14.612-43.779
				c0.575-1.723,2.211-2.564,3.65-1.875c1.443,0.688,2.146,2.641,1.57,4.365l-14.612,43.779
				C94.015,677.971,92.959,678.771,91.843,678.771z"/>
			<path fill="#EAC36E" d="M63.282,678.771c-1.116,0-2.173-0.801-2.611-2.115L46.06,632.877c-0.575-1.725,0.126-3.678,1.568-4.365
				c1.441-0.689,3.075,0.152,3.651,1.875l14.612,43.777c0.575,1.725-0.127,3.68-1.568,4.367
				C63.981,678.693,63.628,678.771,63.282,678.771z"/>
			<path fill="#EAC36E" d="M107.235,675.412H47.886c-5.792,0-10.489,5.615-10.489,12.541v8.957c0-6.924,4.697-12.539,10.489-12.539
				h59.349c5.797,0,10.494,5.615,10.494,12.539v-8.957C117.729,681.027,113.031,675.412,107.235,675.412z"/>
		</g>
		<g>
			<polygon fill="#415E72" points="36.308,730.188 36.308,749.203 25.555,749.203 23.647,736.688 22.659,730.188 			"/>
			<polygon fill="#415E72" points="132.466,730.188 131.476,736.688 129.576,749.203 118.824,749.203 118.824,730.188 			"/>
		</g>
		<g>
			<polygon fill="#344F5E" points="22.659,730.188 36.308,730.188 36.308,736.688 23.647,736.688 			"/>
			<polygon fill="#344F5E" points="132.466,730.188 131.476,736.688 118.824,736.688 118.824,730.188 			"/>
		</g>
		<polygon fill="#CFDCE5" points="26.413,731.531 14.863,731.531 14.863,716.961 37.397,716.961 117.729,716.961 140.259,716.961 
			140.259,731.531 128.709,731.531 		"/>
		<polygon fill="#BAC6CC" points="16.154,731.531 14.863,731.531 14.863,716.961 17.384,716.961 26.371,716.961 28.892,716.961 
			28.892,731.531 27.599,731.531 		"/>
	</g>
	<path fill="#6B2A18" d="M44.473,748.41v-0.869c0-3.486,2.827-6.313,6.313-6.313h5.364c1.242,0,2.249-1.005,2.249-2.248v-0.045
		c0-1.241,1.006-2.248,2.248-2.248h10.941c1.242,0,2.248,1.007,2.248,2.248v9.475h-9.97v-1.183l-2.493,1.183H44.473z"/>
	<path fill="#6B2A18" d="M111.331,748.693v-0.87c0-3.486-2.826-6.312-6.312-6.312h-5.365c-1.241,0-2.247-1.007-2.247-2.249v-0.044
		c0-1.241-1.005-2.248-2.248-2.248H84.218c-1.242,0-2.249,1.007-2.249,2.248v9.475h9.972v-1.186l2.492,1.186H111.331z"/>
	<path fill="#FFB37B" d="M117.741,567.2l-2.273-3.335c-0.393-0.597,0.104-6.817-2.458-5.054c-2.155,1.484-1.851,5.056,0.314,8.132
		c0.391,0.558,0.281,1.323-0.261,1.738L117.741,567.2z"/>
	<path fill="#FF9E5C" d="M113.062,568.682c-0.009,0.006-0.017,0.013-0.025,0.021c-0.483,0.368-1.153,0.33-1.611-0.071
		c-1.401-1.231-3.445-1.358-4.32,0.447c-1.036,2.137,3.061,1.575,3.761,3.445c1.007,2.691,4.222,3.093,5.364,2.87l1.416,5.462
		l3.626-2.004l-1.597-4.782c1.634-0.687,2.209-8.768,0.188-8.986c-0.954-0.102-0.651,1.259-2.123,2.117L113.062,568.682z"/>
	<path fill="#FFB37B" d="M118.358,564.465c-1.028-2.015-7.535,0.271-7.392,4.157c0.145,3.886,3.35,4.141,3.962,1.858
		c0.613-2.285-0.17-2.498-0.17-2.498S119.174,566.063,118.358,564.465z"/>
	<path fill="#FFB37B" d="M120.36,565.431c-0.643-0.781-3.775-1.264-5.359,1.155c-1.584,2.418-0.712,5.335,1.154,4.729
		c2.037-0.662,1.857-3.322,1.857-3.322S121.646,566.997,120.36,565.431z"/>
	
		<line fill="none" stroke="#FFFFFF" stroke-width="5.3201" stroke-miterlimit="10" x1="114.687" y1="578.572" x2="123.361" y2="574.71"/>
	<path fill="none" stroke="#252533" stroke-width="13.3004" stroke-miterlimit="10" d="M77.776,615.053
		c0,0,24.265,2.337,38.45-6.171c14.186-8.509,2.838-32.673,2.838-32.673"/>
	<ellipse fill="#323244" cx="77.901" cy="617.646" rx="16.333" ry="7.265"/>
	<polygon fill="#252533" points="74.422,737.971 74.448,661.417 81.264,661.417 81.446,737.971 97.088,737.705 94.293,645.542 
		61.449,645.542 58.926,737.705 	"/>
	<g>
		<polygon fill="#131516" points="61.453,650.299 94.298,650.299 95.384,684.138 81.312,684.138 81.268,666.176 74.452,666.176 
			74.441,684.138 60.466,684.138 		"/>
	</g>
	<path fill="#252533" d="M77.857,609.827c-22.31,0-19.541,13.611-19.541,13.611v53.058h38.901v-53.002
		C97.217,623.494,100.167,609.827,77.857,609.827z"/>
	<path fill="#FFB37B" d="M59.573,659.229c0,0,1.801,0.284,4.014,1.097c2.191,0.805,3.882-1.968,0.071-3.29
		c-1.22-0.423-2.249-0.734-3.145-0.908c1.42-0.808,3.541-2.205,3.236-3.212c-0.77-2.548-3.655-1.006-5.679,1.065
		c-1.508,1.544-2.4,3.909-2.926,5.299c-0.141,0.313-0.28,0.644-0.42,1.01c-2.013,5.266,5.558,8.25,7.377,6.981
		c2.834-1.977-4.101-4.184-4.101-4.184s5.072,2.963,6.467,0.778C65.567,662.146,61.241,659.983,59.573,659.229z"/>
	
		<line fill="none" stroke="#FFFFFF" stroke-width="5.3201" stroke-miterlimit="10" x1="56.648" y1="652.025" x2="51.988" y2="660.299"/>
	<g>
		<path fill="#252533" d="M51.816,661.519c-0.847-0.438-20.717-10.902-18.526-28.488c2.274-18.236,29.752-25.054,47.875-22.792
			l-1.462,11.729c-7.259-0.904-16.128,0.111-23.146,2.653c-3.246,1.174-10.866,4.488-11.537,9.872
			c-1.152,9.244,12.097,16.459,12.231,16.529L51.816,661.519z"/>
	</g>
	<polygon fill="#FFFFFF" points="67.932,611.87 77.857,640.923 87.868,611.87 	"/>
	<path fill="#AFA2A0" d="M87.821,615.081l-0.105-0.052c-6.237-3.003-13.502-3.002-19.739,0.003l-0.1,0.049l2.737,7.939l7.235-5.354
		l7.237,5.354L87.821,615.081z"/>
	<polygon fill="#070404" points="79.897,634.979 77.849,640.925 75.818,634.979 77.893,611.872 77.893,611.872 	"/>
	<path fill="#070404" d="M77.84,620.137h0.035c1.009,0,1.899-0.665,2.185-1.633l1.136-3.846c0.432-1.461-0.664-2.925-2.185-2.925
		h-2.306c-1.522,0-2.616,1.464-2.186,2.925l1.136,3.846C75.941,619.472,76.831,620.137,77.84,620.137z"/>
	<path fill="#FFFFFF" d="M87.868,611.87l-0.107-0.051c-6.237-3.003-13.502-3.001-19.737,0.005l-0.101,0.046l2.737,7.941l7.236-4.764
		l7.236,4.764L87.868,611.87z"/>
	<polygon fill="#323244" points="77.849,640.925 87.868,610.053 95.058,613.209 90.712,619.01 87.868,620.121 89.064,623.952 	"/>
	<polygon fill="#323244" points="77.849,640.928 67.829,610.054 60.639,612.788 64.985,619.011 67.829,620.122 66.633,623.954 	"/>
	<path fill="#FF9E5C" d="M60.639,623.493"/>
	<g>
		<path fill="#323244" d="M77.266,642.343c0,11.068,0,22.138,0,33.208c0,0.76,1.183,0.761,1.183,0c0-11.07,0-22.14,0-33.208
			C78.449,641.581,77.266,641.58,77.266,642.343L77.266,642.343z"/>
	</g>
	<path fill="#774320" d="M54.8,594.468c0,0-16.384-27.559,0.021-35.054c3.864-14.839,24.048-11.093,28.98-9.699
		c4.931,1.395,7.855-1.137,7.855-1.137c1.651,1.492,1.811,4.624,1.811,4.624l3.813-4.987c5.055,3.164,7.866,11.313,0.774,22.916
		L54.8,594.468z"/>
	<path fill="#FF9E5C" d="M83.117,610.065c0,2.602-2.108,4.71-4.709,4.71h-1.177c-2.601,0-4.709-2.108-4.709-4.71v-7.988
		c0-2.601,2.108-4.709,4.709-4.709h1.177c2.601,0,4.709,2.108,4.709,4.709V610.065z"/>
	<path fill="#FFB37B" d="M81.184,558.333l-13.386,1.084c-8.689,0.703-15.137,8.643-14.401,17.731l0.317,3.914
		c0.003,0.043-0.029,0.077-0.069,0.075c-0.275-0.018-0.553-0.021-0.833,0.002l-0.158,0.013c-3.421,0.276-5.959,3.402-5.669,6.982
		l0.009,0.13c0.291,3.577,3.297,6.251,6.716,5.974l0.16-0.013c0.288-0.023,0.566-0.073,0.84-0.137
		c0.038-0.009,0.075,0.019,0.08,0.06c1.035,8.724,8.479,15.156,16.924,14.473l13.454-1.09c8.688-0.702,15.135-8.641,14.399-17.731
		l-1.318-16.283C97.512,564.429,89.872,557.631,81.184,558.333z"/>
	<g>
		<path fill="#774320" d="M59.291,585.874c-0.626-7.744-3.032-17.357,3.367-23.176c3.24-2.947,7.055-3.244,11.11-3.572
			c3.302-0.268,6.601-0.595,9.908-0.802c3.567-0.225,3.126-5.913-0.466-5.745c-3.621,0.174-7.227,0.588-10.839,0.879
			c-5.159,0.418-9.836,1.528-13.763,5.323c-4.369,4.223-6.208,10.218-5.711,16.357c0.302,3.727,0.604,7.454,0.906,11.182
			C54.101,590.023,59.591,589.578,59.291,585.874L59.291,585.874z"/>
	</g>
	
		<ellipse transform="matrix(0.9968 -0.0802 0.0802 0.9968 -46.6062 7.7336)" fill="#131516" cx="72.912" cy="583.702" rx="1.503" ry="2.078"/>
	
		<ellipse transform="matrix(0.9967 -0.0809 0.0809 0.9967 -46.8138 9.169)" fill="#131516" cx="89.753" cy="582.338" rx="1.503" ry="2.077"/>
	<g>
		<path fill="#774320" d="M92.76,574.691c-2.188-2.444-5.613-2.312-7.376,0.521c-0.398,0.641,0.613,1.229,1.011,0.591
			c1.376-2.214,3.862-2.157,5.538-0.283C92.436,576.081,93.261,575.251,92.76,574.691L92.76,574.691z"/>
	</g>
	<g>
		<path fill="#774320" d="M69.57,577.285c1.355-2.136,3.794-2.479,5.518-0.522c0.5,0.564,1.323-0.265,0.829-0.828
			c-2.228-2.527-5.615-1.986-7.356,0.761C68.155,577.331,69.167,577.92,69.57,577.285L69.57,577.285z"/>
	</g>
	<path fill="#774320" d="M96.641,553.656c0,0,0.957,8.7-16.397,10.104c-17.353,1.405-23.792,0.985-22.504,16.888
		c0,0-5.334-23.062,9.645-26.465C82.361,550.78,88.391,557.75,96.641,553.656z"/>
	<g>
		<path fill="#E56533" d="M74.915,597.116c3.853,3.183,9.119,2.913,12.536-0.776c0.465-0.504-0.288-1.261-0.756-0.755
			c-2.995,3.234-7.603,3.604-11.026,0.776C75.144,595.927,74.383,596.679,74.915,597.116L74.915,597.116z"/>
	</g>
	<text transform="matrix(1 0 0 1 -262.8555 683.8115)" fill="#FFFFFF" font-family="'ArialMT'" font-size="77.6278">Rapido</text>
	<text transform="matrix(1 0 0 1 185.2437 684.2471)" fill="#FFFFFF" font-family="'ArialMT'" font-size="77.6278">Charts</text>
</g>
</svg>
